<mxfile host="app.diagrams.net" modified="2024-05-10T15:55:15.249Z" agent="Mozilla/5.0 (X11; Linux x86_64) AppleWebKit/537.36 (KHTML, like Gecko) Chrome/124.0.0.0 Safari/537.36" etag="E9nfU5XUD1yLLVrUZLEt" version="24.3.1" type="device">
  <diagram name="Page-1" id="7kZhP5I1j4yv4iC_8BHB">
    <mxGraphModel dx="2074" dy="1109" grid="1" gridSize="10" guides="1" tooltips="1" connect="1" arrows="1" fold="1" page="1" pageScale="1" pageWidth="1600" pageHeight="1200" math="0" shadow="0">
      <root>
        <mxCell id="0" />
        <mxCell id="1" parent="0" />
        <mxCell id="yVifbQMx8wcG6yXzHOfm-36" value="" style="rounded=0;whiteSpace=wrap;html=1;dashed=1;" vertex="1" parent="1">
          <mxGeometry x="310" y="150" width="1020" height="500" as="geometry" />
        </mxCell>
        <mxCell id="yVifbQMx8wcG6yXzHOfm-3" style="edgeStyle=orthogonalEdgeStyle;rounded=0;orthogonalLoop=1;jettySize=auto;html=1;exitX=1;exitY=0.5;exitDx=0;exitDy=0;entryX=0;entryY=0.5;entryDx=0;entryDy=0;" edge="1" parent="1" source="yVifbQMx8wcG6yXzHOfm-1" target="yVifbQMx8wcG6yXzHOfm-2">
          <mxGeometry relative="1" as="geometry" />
        </mxCell>
        <mxCell id="yVifbQMx8wcG6yXzHOfm-1" value="&lt;font style=&quot;font-size: 18px;&quot;&gt;in gateway&lt;/font&gt;" style="rounded=0;whiteSpace=wrap;html=1;" vertex="1" parent="1">
          <mxGeometry x="350" y="320" width="120" height="60" as="geometry" />
        </mxCell>
        <mxCell id="yVifbQMx8wcG6yXzHOfm-10" style="edgeStyle=orthogonalEdgeStyle;rounded=0;orthogonalLoop=1;jettySize=auto;html=1;exitX=1;exitY=0.5;exitDx=0;exitDy=0;entryX=0;entryY=0.5;entryDx=0;entryDy=0;" edge="1" parent="1" source="yVifbQMx8wcG6yXzHOfm-2" target="yVifbQMx8wcG6yXzHOfm-4">
          <mxGeometry relative="1" as="geometry" />
        </mxCell>
        <mxCell id="yVifbQMx8wcG6yXzHOfm-2" value="&lt;font style=&quot;font-size: 18px;&quot;&gt;BigBlueButtonActor&lt;/font&gt;" style="rounded=0;whiteSpace=wrap;html=1;" vertex="1" parent="1">
          <mxGeometry x="530" y="320" width="160" height="60" as="geometry" />
        </mxCell>
        <mxCell id="yVifbQMx8wcG6yXzHOfm-15" style="edgeStyle=orthogonalEdgeStyle;rounded=0;orthogonalLoop=1;jettySize=auto;html=1;exitX=0.5;exitY=1;exitDx=0;exitDy=0;entryX=0.5;entryY=0;entryDx=0;entryDy=0;" edge="1" parent="1" source="yVifbQMx8wcG6yXzHOfm-4" target="yVifbQMx8wcG6yXzHOfm-7">
          <mxGeometry relative="1" as="geometry" />
        </mxCell>
        <mxCell id="yVifbQMx8wcG6yXzHOfm-19" style="edgeStyle=orthogonalEdgeStyle;rounded=0;orthogonalLoop=1;jettySize=auto;html=1;exitX=1;exitY=0.25;exitDx=0;exitDy=0;" edge="1" parent="1" source="yVifbQMx8wcG6yXzHOfm-4" target="yVifbQMx8wcG6yXzHOfm-5">
          <mxGeometry relative="1" as="geometry">
            <Array as="points">
              <mxPoint x="1000" y="335" />
              <mxPoint x="1000" y="335" />
            </Array>
          </mxGeometry>
        </mxCell>
        <mxCell id="yVifbQMx8wcG6yXzHOfm-28" style="edgeStyle=orthogonalEdgeStyle;rounded=0;orthogonalLoop=1;jettySize=auto;html=1;exitX=1;exitY=0.5;exitDx=0;exitDy=0;entryX=0;entryY=0.25;entryDx=0;entryDy=0;" edge="1" parent="1" source="yVifbQMx8wcG6yXzHOfm-4" target="yVifbQMx8wcG6yXzHOfm-9">
          <mxGeometry relative="1" as="geometry" />
        </mxCell>
        <mxCell id="yVifbQMx8wcG6yXzHOfm-29" style="edgeStyle=orthogonalEdgeStyle;rounded=0;orthogonalLoop=1;jettySize=auto;html=1;exitX=1;exitY=0.75;exitDx=0;exitDy=0;entryX=0;entryY=0.5;entryDx=0;entryDy=0;" edge="1" parent="1" source="yVifbQMx8wcG6yXzHOfm-4" target="yVifbQMx8wcG6yXzHOfm-8">
          <mxGeometry relative="1" as="geometry">
            <Array as="points">
              <mxPoint x="930" y="365" />
              <mxPoint x="930" y="520" />
            </Array>
          </mxGeometry>
        </mxCell>
        <mxCell id="yVifbQMx8wcG6yXzHOfm-33" style="edgeStyle=orthogonalEdgeStyle;rounded=0;orthogonalLoop=1;jettySize=auto;html=1;exitX=0.75;exitY=0;exitDx=0;exitDy=0;entryX=0;entryY=0.5;entryDx=0;entryDy=0;" edge="1" parent="1" source="yVifbQMx8wcG6yXzHOfm-4" target="yVifbQMx8wcG6yXzHOfm-32">
          <mxGeometry relative="1" as="geometry" />
        </mxCell>
        <mxCell id="yVifbQMx8wcG6yXzHOfm-4" value="&lt;font style=&quot;font-size: 18px;&quot;&gt;MeetingActor&lt;/font&gt;" style="rounded=0;whiteSpace=wrap;html=1;" vertex="1" parent="1">
          <mxGeometry x="720" y="320" width="160" height="60" as="geometry" />
        </mxCell>
        <mxCell id="yVifbQMx8wcG6yXzHOfm-18" style="edgeStyle=orthogonalEdgeStyle;rounded=0;orthogonalLoop=1;jettySize=auto;html=1;exitX=1;exitY=0.4;exitDx=0;exitDy=0;entryX=0.5;entryY=0;entryDx=0;entryDy=0;exitPerimeter=0;" edge="1" parent="1" source="yVifbQMx8wcG6yXzHOfm-5" target="yVifbQMx8wcG6yXzHOfm-13">
          <mxGeometry relative="1" as="geometry" />
        </mxCell>
        <mxCell id="yVifbQMx8wcG6yXzHOfm-5" value="&lt;font style=&quot;font-size: 18px;&quot;&gt;RecordingService&lt;/font&gt;" style="rounded=0;whiteSpace=wrap;html=1;" vertex="1" parent="1">
          <mxGeometry x="1040" y="310" width="160" height="60" as="geometry" />
        </mxCell>
        <mxCell id="yVifbQMx8wcG6yXzHOfm-6" value="&lt;font style=&quot;font-size: 18px;&quot;&gt;message receiver&lt;/font&gt;" style="rounded=0;whiteSpace=wrap;html=1;" vertex="1" parent="1">
          <mxGeometry x="350" y="510" width="160" height="60" as="geometry" />
        </mxCell>
        <mxCell id="yVifbQMx8wcG6yXzHOfm-7" value="&lt;font style=&quot;font-size: 18px;&quot;&gt;message publisher&lt;/font&gt;" style="rounded=0;whiteSpace=wrap;html=1;" vertex="1" parent="1">
          <mxGeometry x="720" y="510" width="160" height="60" as="geometry" />
        </mxCell>
        <mxCell id="yVifbQMx8wcG6yXzHOfm-8" value="&lt;font style=&quot;font-size: 18px;&quot;&gt;LearningDashboardActor&lt;/font&gt;" style="rounded=0;whiteSpace=wrap;html=1;" vertex="1" parent="1">
          <mxGeometry x="1040" y="490" width="210" height="60" as="geometry" />
        </mxCell>
        <mxCell id="yVifbQMx8wcG6yXzHOfm-12" value="&lt;font style=&quot;font-size: 18px;&quot;&gt;Redis PubSub&lt;/font&gt;" style="rounded=0;whiteSpace=wrap;html=1;" vertex="1" parent="1">
          <mxGeometry x="450" y="680" width="650" height="60" as="geometry" />
        </mxCell>
        <mxCell id="yVifbQMx8wcG6yXzHOfm-13" value="&lt;font style=&quot;font-size: 18px;&quot;&gt;Redis DB&lt;/font&gt;" style="rounded=0;whiteSpace=wrap;html=1;" vertex="1" parent="1">
          <mxGeometry x="1330" y="690" width="100" height="60" as="geometry" />
        </mxCell>
        <mxCell id="yVifbQMx8wcG6yXzHOfm-14" style="edgeStyle=orthogonalEdgeStyle;rounded=0;orthogonalLoop=1;jettySize=auto;html=1;exitX=0.5;exitY=0;exitDx=0;exitDy=0;entryX=0.667;entryY=1.033;entryDx=0;entryDy=0;entryPerimeter=0;" edge="1" parent="1" source="yVifbQMx8wcG6yXzHOfm-6" target="yVifbQMx8wcG6yXzHOfm-1">
          <mxGeometry relative="1" as="geometry" />
        </mxCell>
        <mxCell id="yVifbQMx8wcG6yXzHOfm-17" style="edgeStyle=orthogonalEdgeStyle;rounded=0;orthogonalLoop=1;jettySize=auto;html=1;exitX=0.25;exitY=0;exitDx=0;exitDy=0;entryX=0.563;entryY=1;entryDx=0;entryDy=0;entryPerimeter=0;" edge="1" parent="1" source="yVifbQMx8wcG6yXzHOfm-12" target="yVifbQMx8wcG6yXzHOfm-6">
          <mxGeometry relative="1" as="geometry" />
        </mxCell>
        <mxCell id="yVifbQMx8wcG6yXzHOfm-24" style="edgeStyle=orthogonalEdgeStyle;rounded=0;orthogonalLoop=1;jettySize=auto;html=1;entryX=1;entryY=0.5;entryDx=0;entryDy=0;exitX=1;exitY=0.25;exitDx=0;exitDy=0;" edge="1" parent="1" source="yVifbQMx8wcG6yXzHOfm-12" target="yVifbQMx8wcG6yXzHOfm-9">
          <mxGeometry relative="1" as="geometry">
            <mxPoint x="1093" y="670" as="sourcePoint" />
            <Array as="points">
              <mxPoint x="1100" y="690" />
              <mxPoint x="1290" y="690" />
              <mxPoint x="1290" y="420" />
            </Array>
          </mxGeometry>
        </mxCell>
        <mxCell id="yVifbQMx8wcG6yXzHOfm-9" value="&lt;font style=&quot;font-size: 18px;&quot;&gt;GraphqlConnectionsActor&lt;/font&gt;" style="rounded=0;whiteSpace=wrap;html=1;" vertex="1" parent="1">
          <mxGeometry x="1040" y="390" width="210" height="60" as="geometry" />
        </mxCell>
        <mxCell id="yVifbQMx8wcG6yXzHOfm-27" style="edgeStyle=orthogonalEdgeStyle;rounded=0;orthogonalLoop=1;jettySize=auto;html=1;exitX=0.25;exitY=1;exitDx=0;exitDy=0;entryX=0.983;entryY=-0.033;entryDx=0;entryDy=0;entryPerimeter=0;startArrow=classic;startFill=1;" edge="1" parent="1" source="yVifbQMx8wcG6yXzHOfm-8" target="yVifbQMx8wcG6yXzHOfm-12">
          <mxGeometry relative="1" as="geometry" />
        </mxCell>
        <mxCell id="yVifbQMx8wcG6yXzHOfm-31" style="edgeStyle=orthogonalEdgeStyle;rounded=0;orthogonalLoop=1;jettySize=auto;html=1;exitX=0.5;exitY=1;exitDx=0;exitDy=0;entryX=0.537;entryY=-0.017;entryDx=0;entryDy=0;entryPerimeter=0;" edge="1" parent="1" source="yVifbQMx8wcG6yXzHOfm-7" target="yVifbQMx8wcG6yXzHOfm-12">
          <mxGeometry relative="1" as="geometry" />
        </mxCell>
        <mxCell id="yVifbQMx8wcG6yXzHOfm-35" style="edgeStyle=orthogonalEdgeStyle;rounded=0;orthogonalLoop=1;jettySize=auto;html=1;exitX=1;exitY=0.5;exitDx=0;exitDy=0;" edge="1" parent="1" source="yVifbQMx8wcG6yXzHOfm-32" target="yVifbQMx8wcG6yXzHOfm-34">
          <mxGeometry relative="1" as="geometry" />
        </mxCell>
        <mxCell id="yVifbQMx8wcG6yXzHOfm-32" value="&lt;font style=&quot;font-size: 18px;&quot;&gt;PostgresConnection&lt;/font&gt;" style="rounded=0;whiteSpace=wrap;html=1;" vertex="1" parent="1">
          <mxGeometry x="960" y="230" width="180" height="60" as="geometry" />
        </mxCell>
        <mxCell id="yVifbQMx8wcG6yXzHOfm-34" value="&lt;font style=&quot;font-size: 18px;&quot;&gt;PostgreSQL&lt;/font&gt;" style="shape=cylinder3;whiteSpace=wrap;html=1;boundedLbl=1;backgroundOutline=1;size=15;" vertex="1" parent="1">
          <mxGeometry x="1410" y="220" width="100" height="80" as="geometry" />
        </mxCell>
        <mxCell id="yVifbQMx8wcG6yXzHOfm-37" value="&lt;font style=&quot;font-size: 24px;&quot;&gt;Akka Apps&lt;/font&gt;" style="text;html=1;align=center;verticalAlign=middle;whiteSpace=wrap;rounded=0;" vertex="1" parent="1">
          <mxGeometry x="695" y="170" width="160" height="30" as="geometry" />
        </mxCell>
      </root>
    </mxGraphModel>
  </diagram>
</mxfile>
